<?xml version="1.0" encoding="UTF-8"?>
<svg xmlns="http://www.w3.org/2000/svg" xmlns:xlink="http://www.w3.org/1999/xlink" viewBox="0 0 800 800">
  <defs>
    <style>
      .cls-1 {
        fill: url(#linear-gradient-2);
      }

      .cls-2 {
        fill: url(#linear-gradient-3);
      }

      .cls-3 {
        fill: url(#linear-gradient);
      }

      .cls-4 {
        fill: url(#linear-gradient-4);
      }

      .logo-by-ilsya-velixs-lazycode {
        color: red;
      }
    </style>
    <linearGradient id="linear-gradient" x1="178.3" y1="138.56" x2="396.27" y2="672.25" gradientUnits="userSpaceOnUse">
      <stop offset="0" stop-color="#9a15ff"/>
      <stop offset=".14" stop-color="#8927ff"/>
      <stop offset=".42" stop-color="#6059ff"/>
      <stop offset=".82" stop-color="#1da7ff"/>
      <stop offset=".88" stop-color="#14b3ff"/>
    </linearGradient>
    <linearGradient id="linear-gradient-2" x1="218.35" y1="215.43" x2="386.53" y2="678.17" gradientUnits="userSpaceOnUse">
      <stop offset="0" stop-color="#eadafc"/>
      <stop offset="1" stop-color="#afe4fc"/>
    </linearGradient>
    <linearGradient id="linear-gradient-3" x1="630.72" y1="244.94" x2="163.39" y2="462.48" gradientUnits="userSpaceOnUse">
      <stop offset="0" stop-color="#9916ff"/>
      <stop offset="1" stop-color="#3b85ff"/>
    </linearGradient>
    <linearGradient id="linear-gradient-4" x1="598.23" y1="240.43" x2="189.32" y2="477.74" gradientUnits="userSpaceOnUse">
      <stop offset="0" stop-color="#eadafc"/>
      <stop offset="1" stop-color="#afe4fc"/>
    </linearGradient>
  </defs>
  <g id="_Outline" data-name="| Outline">
    <path class="cls-3" d="m417.25,232.96v461.21c0,9.72-10.18,16.07-18.91,11.81l-232.58-113.69c-4.51-2.2-7.37-6.79-7.37-11.81V119.27c0-9.72,10.18-16.07,18.91-11.81l232.58,113.69c4.51,2.2,7.37,6.79,7.37,11.81Z"/>
  </g>
  <g id="_Inline" data-name="| Inline">
    <path class="cls-1" d="m394.11,239.88v434.76c0,1.98-2.08,3.28-3.86,2.41l-207.18-101.29c-.92-.45-1.51-1.39-1.51-2.41V138.6c0-1.98,2.08-3.28,3.86-2.41l207.18,101.28c.92.45,1.51,1.39,1.51,2.41Z"/>
  </g>
  <g id="_-_Outline" data-name="- Outline">
    <path class="cls-2" d="m681.03,114.97v217.51c0,5.05-2.91,9.65-7.47,11.82l-508.16,241.65c-3.26,1.55-7.02-.83-7.02-4.43v-236.03l506.36-240.8c7.56-3.59,16.28,1.92,16.28,10.28Z"/>
  </g>
  <g id="_-_Outline_copy" data-name="- Outline copy">
    <path class="cls-4" d="m657.84,140.24v184.4c0,1.34-.77,2.56-1.98,3.13l-469.34,223.2c-2.3,1.1-4.96-.58-4.96-3.13v-184.41c0-1.34.77-2.56,1.98-3.13l469.34-223.19c2.3-1.1,4.96.58,4.96,3.13Z"/>
  </g>
</svg>